# xmcd
# 
# Track frame offsets:
#     182
#     16502
#     36555
#     50317
#     80860
#     94625
#     108660
#     132015
#     146670
# 
# Disc length: 2165
# 
# Revision: 1
# Processed by: cddbd v1.5.2PL0 Copyright (c) Steve Scherf et al.
# Submitted via: BonkEnc v1.0.5
# 
DISCID=73087309
DTITLE=Taj Mahal - Evolution (The Most Recent)
DYEAR=1978
DGENRE=blues
TTITLE0=Sing A Happy Song
TTITLE1=Queen Bee
TTITLE2=Lowdown Showdown
TTITLE3=The Most Recent Evolution of Muthafusticus Modernusticus
TTITLE4=Why Do You Do Me This Way
TTITLE5=Salsa de Laventille
TTITLE6=The Big Blues
TTITLE7=Highnite
TTITLE8=Soughbound With The Hammer Down
EXTD=Warner Bros.
EXTT0=
EXTT1=
EXTT2=
EXTT3=
EXTT4=
EXTT5=
EXTT6=
EXTT7=
EXTT8=
PLAYORDER=
